<?xml version="1.0" encoding="utf-8"?>
<!-- Generator: Adobe Illustrator 18.1.1, SVG Export Plug-In . SVG Version: 6.00 Build 0)  -->
<svg version="1.1" id="Layer_1" xmlns="http://www.w3.org/2000/svg" xmlns:xlink="http://www.w3.org/1999/xlink" x="0px" y="0px"
	 viewBox="0 0 172.8 172.8" enable-background="new 0 0 172.8 172.8" xml:space="preserve">
<text transform="matrix(1 0 0 1 55.5429 96.0451)" fill="#E6E7E8" font-family="'Montserrat-ExtraLight'" font-size="63.3608">D</text>
<text transform="matrix(1 0 0 1 69.4211 121.3442)" fill="#B1B3B6" font-family="'Montserrat-ExtraLight'" font-size="63.3608">D</text>
<rect x="75.7" y="93.5" fill="#E6E7E8" width="4.3" height="2.6"/>
<rect x="29.3" y="29.3" transform="matrix(0.7071 -0.7071 0.7071 0.7071 -35.7945 86.4155)" fill="none" stroke="#E6E7E8" stroke-miterlimit="10" width="114.3" height="114.3"/>
<g>
	<g>
		
			<line fill="none" stroke="#E6E7E8" stroke-width="3" stroke-linecap="round" stroke-miterlimit="10" x1="158.5" y1="86.4" x2="158.5" y2="86.4"/>
		
			<line fill="none" stroke="#E6E7E8" stroke-width="3" stroke-linecap="round" stroke-miterlimit="10" stroke-dasharray="0,7.8407" x1="152.9" y1="92" x2="89.2" y2="155.7"/>
		
			<line fill="none" stroke="#E6E7E8" stroke-width="3" stroke-linecap="round" stroke-miterlimit="10" x1="86.4" y1="158.5" x2="86.4" y2="158.5"/>
		
			<line fill="none" stroke="#E6E7E8" stroke-width="3" stroke-linecap="round" stroke-miterlimit="10" stroke-dasharray="0,7.8407" x1="80.9" y1="152.9" x2="17.1" y2="89.2"/>
		
			<line fill="none" stroke="#E6E7E8" stroke-width="3" stroke-linecap="round" stroke-miterlimit="10" x1="14.3" y1="86.4" x2="14.3" y2="86.4"/>
		
			<line fill="none" stroke="#E6E7E8" stroke-width="3" stroke-linecap="round" stroke-miterlimit="10" stroke-dasharray="0,7.8407" x1="19.9" y1="80.9" x2="83.6" y2="17.1"/>
		
			<line fill="none" stroke="#E6E7E8" stroke-width="3" stroke-linecap="round" stroke-miterlimit="10" x1="86.4" y1="14.3" x2="86.4" y2="14.3"/>
		
			<line fill="none" stroke="#E6E7E8" stroke-width="3" stroke-linecap="round" stroke-miterlimit="10" stroke-dasharray="0,7.8407" x1="92" y1="19.9" x2="155.7" y2="83.6"/>
	</g>
</g>
<text transform="matrix(0.495 0.495 -0.495 0.495 25.5618 87.8319)" fill="#E6E7E8" font-family="'Montserrat-Light'" font-size="11.0213" letter-spacing="2.9">devanti</text>
<text transform="matrix(-0.495 -0.495 0.495 -0.495 147.2354 85.0091)" fill="#E6E7E8" font-family="'Montserrat-Light'" font-size="11.0213" letter-spacing="2.9">digital</text>
<rect x="6.9" y="82.3" transform="matrix(-0.7071 0.7071 -0.7071 -0.7071 79.9032 139.734)" fill="#E6E7E8" width="8.3" height="8.3"/>
<rect x="82.1" y="157.5" transform="matrix(-0.7071 0.7071 -0.7071 -0.7071 261.3993 214.9121)" fill="#E6E7E8" width="8.3" height="8.3"/>
<rect x="157.2" y="82.3" transform="matrix(-0.7071 0.7071 -0.7071 -0.7071 336.5774 33.4161)" fill="#E6E7E8" width="8.3" height="8.3"/>
<rect x="82.4" y="7.5" transform="matrix(-0.7071 0.7071 -0.7071 -0.7071 156.0214 -41.3726)" fill="#E6E7E8" width="8.3" height="8.3"/>
</svg>
