<?xml version="1.0" encoding="UTF-8" standalone="no"?>
<svg width="89px" height="81px" viewBox="0 0 89 81" version="1.1" xmlns="http://www.w3.org/2000/svg" xmlns:xlink="http://www.w3.org/1999/xlink" xmlns:sketch="http://www.bohemiancoding.com/sketch/ns">
    <!-- Generator: Sketch 3.4.4 (17249) - http://www.bohemiancoding.com/sketch -->
    <title>Artboard 1 Copy</title>
    <desc>Created with Sketch.</desc>
    <defs></defs>
    <g id="Page-1" stroke="none" stroke-width="1" fill="none" fill-rule="evenodd" sketch:type="MSPage">
        <g id="Artboard-1-Copy" sketch:type="MSArtboardGroup">
            <g id="button-lg" sketch:type="MSLayerGroup" transform="translate(8.000000, 5.000000)">
                <path d="M68.4375,36.5 C68.4375,54.1386563 54.1387084,68.4375 36.5001246,68.4375 C18.8614881,68.4375 4.5625,54.1386037 4.5625,36.5 C4.5625,18.8613963 18.8614881,4.5625 36.5001246,4.5625 C54.1387084,4.5625 68.4375,18.8613437 68.4375,36.5 L68.4375,36.5 Z M73,36.5 C73,16.3415482 56.6585113,0 36.5001246,0 C16.3416955,0 0,16.3415906 0,36.5 C0,56.6584094 16.3416955,73 36.5001246,73 C56.6585113,73 73,56.6584518 73,36.5 L73,36.5 Z" id="Shape" fill="#EDEDED" sketch:type="MSShapeGroup"></path>
                <path d="M37,14.5652155 C37,14.5652155 37.1385573,14.5270978 37.3985368,14.4558856 C37.5285265,14.4219047 37.6886503,14.3805367 37.8771354,14.3371002 C37.971378,14.3149387 38.0727109,14.2912998 38.1805433,14.2661835 C38.29133,14.2481589 38.4086162,14.2289523 38.5329928,14.2088592 C38.7826322,14.1666047 39.0618147,14.128487 39.3687678,14.0880054 C39.6715849,14.0575703 39.999809,14.0398411 40.3543265,14.0144293 C40.7091394,13.9875401 41.0825645,14.0073377 41.4834647,14.0029054 C41.8846604,13.9993595 42.2985596,14.0522516 42.7399339,14.0782543 C43.1786493,14.1163721 43.6288865,14.1973353 44.1027583,14.2638196 C44.3370352,14.3072561 44.5730848,14.3601481 44.8141567,14.4124492 C45.0558195,14.4635683 45.3010274,14.5176422 45.5453491,14.5876724 C45.7914433,14.6520884 46.0396056,14.7238915 46.2907221,14.798354 C46.5403616,14.8763624 46.7888192,14.9676676 47.0431856,15.0539495 C47.5572359,15.2170579 48.0538559,15.4496055 48.5714514,15.6659013 C49.5841898,16.1404521 50.6010642,16.7080809 51.5736239,17.3797209 C52.5393886,18.059339 53.4664519,18.8299668 54.3229071,19.6738752 C55.1669542,20.530194 55.9392115,21.4556566 56.6195897,22.4216007 C57.2922867,23.3937501 57.8586284,24.4114044 58.3345682,25.4240353 C58.7880551,26.4487812 59.1594122,27.4637761 59.4137786,28.4506998 C59.4837958,28.6950668 59.5378597,28.9406158 59.5886739,29.1823234 C59.6400789,29.4240311 59.6947337,29.6595335 59.7378666,29.893854 C59.8043387,30.3681093 59.8838097,30.8187256 59.923102,31.2575225 C59.9491,31.6992743 60.000505,32.1135458 59.9978461,32.5145205 C59.9931192,32.9157907 60.0120268,33.2892852 59.985438,33.6444595 C59.9594401,33.9990429 59.9420096,34.3273279 59.9109894,34.6302012 C59.869629,34.933961 59.8315183,35.210536 59.7886808,35.4593353 C59.7682961,35.583144 59.749093,35.700452 59.7310717,35.8106683 C59.7056646,35.9205892 59.6820301,36.0237138 59.6601682,36.1194513 C59.6164444,36.3103354 59.5747886,36.4719663 59.540814,36.6022757 C59.4687288,36.8617125 59.4306181,37 59.4306181,37 C59.4306181,37 59.3851217,36.8628944 59.3003329,36.6064125 C59.2122944,36.3514079 59.1213016,35.9779135 58.9594053,35.5145912 C58.8796388,35.2829301 58.8031221,35.0276301 58.7147882,34.7525325 C58.610501,34.4792078 58.5141904,34.1843127 58.4034037,33.8734612 C58.1756262,33.2526449 57.9103289,32.5659351 57.5971718,31.8384483 C57.4402978,31.4750003 57.2659933,31.1026878 57.0916889,30.7200333 C56.8916819,30.3456523 56.7271267,29.947337 56.5040761,29.5611366 C56.102585,28.7713022 55.6101011,27.9829452 55.1063908,27.1789275 C54.5778643,26.3873201 54.0088637,25.5951218 53.393185,24.8224256 C52.767757,24.0571165 52.1012641,23.311014 51.3987286,22.5985969 C50.6867392,21.8953399 49.9422525,21.2272458 49.177381,20.6008152 C48.4054191,19.9838402 47.6124816,19.4153248 46.8216121,18.8855182 C46.0183345,18.3805324 45.2289422,17.8888435 44.4395499,17.4860959 C44.0534212,17.2630039 43.654589,17.0998955 43.2805731,16.898374 C42.8976942,16.7243326 42.5251554,16.5511778 42.1617749,16.3933882 C41.4341277,16.0807639 40.7475455,15.8157128 40.126549,15.5881885 C39.8154599,15.4782676 39.5206195,15.3816437 39.2473456,15.277928 C38.9725945,15.1892822 38.7202962,15.1080235 38.4922233,15.0344475 C38.0343048,14.8734075 37.6443356,14.7821023 37.3926281,14.6946384 C37.1364892,14.6101294 37,14.5652155 37,14.5652155" id="Fill-3" fill="#E5E5E5" sketch:type="MSShapeGroup"></path>
            </g>
        </g>
    </g>
</svg>