<?xml version="1.0" encoding="UTF-8" standalone="no"?>
<svg width="101px" height="81px" viewBox="0 0 101 81" version="1.1" xmlns="http://www.w3.org/2000/svg" xmlns:xlink="http://www.w3.org/1999/xlink" xmlns:sketch="http://www.bohemiancoding.com/sketch/ns">
    <!-- Generator: Sketch 3.4.4 (17249) - http://www.bohemiancoding.com/sketch -->
    <title>Artboard 1</title>
    <desc>Created with Sketch.</desc>
    <defs></defs>
    <g id="Page-1" stroke="none" stroke-width="1" fill="none" fill-rule="evenodd" sketch:type="MSPage">
        <g id="Artboard-1" sketch:type="MSArtboardGroup">
            <g id="button-lg" sketch:type="MSLayerGroup" transform="translate(37.000000, 17.000000)">
                <path d="M24.375,13 C24.375,19.2822612 19.2822797,24.375 13.0000444,24.375 C6.71779028,24.375 1.625,19.2822424 1.625,13 C1.625,6.7177576 6.71779028,1.625 13.0000444,1.625 C19.2822797,1.625 24.375,6.71773884 24.375,13 L24.375,13 Z M26,13 C26,5.82027745 20.1797437,0 13.0000444,0 C5.8203299,0 0,5.82029255 0,13 C0,20.1797075 5.8203299,26 13.0000444,26 C20.1797437,26 26,20.1797225 26,13 L26,13 Z" id="Shape" fill="#EDEDED" sketch:type="MSShapeGroup"></path>
                <path d="M13,5.19659669 C13,5.19659669 13.0481938,5.18333836 13.1386215,5.15856891 C13.1838353,5.14674946 13.2395305,5.13236057 13.3050906,5.11725224 C13.3378706,5.10954391 13.3731168,5.10132168 13.4106238,5.09258557 C13.4491583,5.08631613 13.4899535,5.07963557 13.5332149,5.07264668 C13.620046,5.05794946 13.717153,5.04469112 13.8239192,5.03061057 C13.9292469,5.02002446 14.0434118,5.01385779 14.1667223,5.0050189 C14.2901355,4.99566612 14.4200224,5.00255223 14.559466,5.00101057 C14.6990123,4.99977723 14.8429772,5.01817446 14.9964987,5.0272189 C15.1490954,5.04047724 15.3056997,5.06863835 15.4705246,5.09176335 C15.5520123,5.10687168 15.6341165,5.12526891 15.7179676,5.14346058 C15.8020242,5.16124113 15.8873139,5.18004947 15.9722953,5.2044078 C16.0578933,5.22681336 16.1442106,5.25178836 16.2315555,5.27768836 C16.3183866,5.3048217 16.4048067,5.33658003 16.4932819,5.36659115 C16.6720821,5.42332448 16.8448194,5.5042106 17.0248527,5.57944394 C17.3771095,5.74450506 17.7308049,5.94194119 18.0690866,6.17555509 C18.4050047,6.411944 18.7274615,6.67998846 19.025359,6.97352181 C19.3189406,7.27137183 19.5875518,7.59327185 19.8242051,7.92925243 C20.0581867,8.26739134 20.2551751,8.62135803 20.4207194,8.9735775 C20.578454,9.33001086 20.7076216,9.68305255 20.7960969,10.0263304 C20.8204507,10.1113276 20.8392555,10.1967359 20.85693,10.2808081 C20.87481,10.3648804 20.8938204,10.4467943 20.9088232,10.5282971 C20.9319439,10.6932554 20.959586,10.8499915 20.9732529,11.0026165 C20.9822956,11.1562693 21.0001757,11.3003638 20.9992508,11.4398332 C20.9976067,11.5794055 21.0041833,11.7093166 20.994935,11.8328555 C20.9858922,11.9561888 20.9798294,12.0703749 20.9690398,12.1757222 C20.9546536,12.2813777 20.9413977,12.3775777 20.9264977,12.4641166 C20.9194073,12.5071805 20.912728,12.5479833 20.9064597,12.5863194 C20.8976225,12.6245528 20.8894018,12.6604222 20.8817976,12.6937222 C20.8665894,12.7601167 20.8521004,12.8163361 20.8402831,12.8616611 C20.81521,12.9519 20.8019541,13 20.8019541,13 C20.8019541,13 20.7861293,12.9523111 20.7566375,12.8631 C20.7260155,12.7744028 20.6943658,12.6444916 20.638054,12.4833361 C20.6103092,12.4027583 20.5836947,12.3139583 20.5529698,12.2182722 C20.516696,12.1232027 20.4831967,12.0206305 20.4446621,11.9125083 C20.3654352,11.6965721 20.2731579,11.4577166 20.1642337,11.2046777 C20.1096688,11.078261 20.0490412,10.948761 19.9884135,10.8156637 C19.9188459,10.6854443 19.8616093,10.5468998 19.7840265,10.4125693 C19.6443774,10.1378442 19.4730787,9.86363312 19.2978751,9.58397477 C19.1140398,9.30863308 18.9161265,9.03308584 18.7019774,8.76432193 C18.4844372,8.49812747 18.2526136,8.23861356 18.0082534,7.99081633 C17.760605,7.7462052 17.501653,7.51382463 17.2356108,7.29593572 C16.9671023,7.08133571 16.6912979,6.88359125 16.4162129,6.69931068 C16.136812,6.52366345 15.8622408,6.35264121 15.5876695,6.21255509 C15.4533639,6.13495787 15.3146397,6.07822453 15.1845472,6.00813008 C15.0513719,5.94759396 14.9217932,5.88736618 14.7954,5.83248284 C14.5423053,5.72374395 14.3034941,5.63155228 14.0874953,5.55241338 C13.9792904,5.51418005 13.8767372,5.48057171 13.7816854,5.44449671 C13.6861198,5.41366337 13.5983639,5.38539948 13.5190342,5.35980781 C13.3597582,5.30379392 13.2241167,5.27203558 13.1365663,5.24161336 C13.0474745,5.21221891 13,5.19659669 13,5.19659669" id="Fill-3" fill="#E5E5E5" sketch:type="MSShapeGroup"></path>
            </g>
            <g id="bubble-md" sketch:type="MSLayerGroup" transform="translate(54.000000, 2.000000)">
                <path d="M15.9375,8.5 C15.9375,12.6076323 12.6076444,15.9375 8.50002901,15.9375 C4.39240134,15.9375 1.0625,12.60762 1.0625,8.5 C1.0625,4.39237997 4.39240134,1.0625 8.50002901,1.0625 C12.6076444,1.0625 15.9375,4.39236771 15.9375,8.5 L15.9375,8.5 Z M17,8.5 C17,3.80556603 13.1944478,0 8.50002901,0 C3.80560032,0 0,3.8055759 0,8.5 C0,13.1944241 3.80560032,17 8.50002901,17 C13.1944478,17 17,13.194434 17,8.5 L17,8.5 Z" id="Shape" fill="#EDEDED" sketch:type="MSShapeGroup"></path>
                <path d="M8.5,3.39777476 C8.5,3.39777476 8.53151135,3.38910585 8.59063712,3.37291044 C8.62020001,3.36518234 8.65661611,3.35577422 8.6994823,3.3458957 C8.72091539,3.34085563 8.74396101,3.33547956 8.76848476,3.32976749 C8.79368041,3.32566824 8.82035419,3.32130018 8.8486405,3.31673052 C8.90541468,3.3071208 8.9689077,3.29845189 9.03871643,3.28924537 C9.10758451,3.28232368 9.1822308,3.27829163 9.26285686,3.27251236 C9.3435501,3.26639708 9.42847621,3.27089954 9.51965085,3.26989152 C9.61089266,3.26908511 9.70502358,3.28111407 9.80540302,3.28702774 C9.90517777,3.29569665 10.0075729,3.31410969 10.115343,3.32922988 C10.1686234,3.33910841 10.2223069,3.35113736 10.2771326,3.36303191 C10.3320927,3.37465766 10.3878591,3.38695542 10.4434239,3.40288202 C10.4993918,3.41753181 10.55583,3.43386162 10.6129402,3.45079624 C10.6697143,3.46853726 10.7262198,3.48930233 10.784069,3.50892498 C10.9009767,3.54601985 11.0139204,3.59890693 11.1316344,3.64809796 C11.3619562,3.75602254 11.5932186,3.88511539 11.8144028,4.03786294 C12.0340416,4.19242492 12.2448787,4.36768476 12.4396578,4.55961042 C12.631615,4.75435851 12.8072454,4.9648316 12.9619803,5.18451121 C13.1149682,5.40560203 13.2437683,5.63704179 13.3520088,5.86733914 C13.455143,6.10039172 13.5395988,6.33122667 13.597448,6.55567754 C13.6133716,6.61125265 13.6256671,6.66709656 13.6372235,6.72206687 C13.6489143,6.77703717 13.6613441,6.83059625 13.6711536,6.88388654 C13.686271,6.99174391 13.7043447,7.09422522 13.7132807,7.1940185 C13.7191933,7.29448379 13.7308841,7.38869939 13.7302794,7.47989096 C13.7292044,7.57114972 13.7335044,7.65609161 13.7274575,7.73686704 C13.7215449,7.81750807 13.7175808,7.89216823 13.710526,7.96104911 C13.7011196,8.03013159 13.6924523,8.0930316 13.68271,8.14961472 C13.678074,8.17777188 13.6737068,8.20445062 13.6696083,8.22951654 C13.6638301,8.25451526 13.658455,8.27796836 13.6534831,8.29974144 C13.6435392,8.34315319 13.6340656,8.37991206 13.626339,8.40954764 C13.609945,8.46855 13.6012777,8.5 13.6012777,8.5 C13.6012777,8.5 13.5909307,8.4688188 13.5716476,8.41048846 C13.5516255,8.35249411 13.5309315,8.26755223 13.4941122,8.16218128 C13.4759714,8.10949581 13.4585696,8.05143426 13.4384803,7.98887026 C13.4147628,7.92670947 13.3928593,7.85964301 13.3676637,7.78894771 C13.3158615,7.6477587 13.2555263,7.49158391 13.1843066,7.32613539 C13.1486296,7.24347833 13.1089884,7.15880525 13.0693473,7.07178014 C13.0238608,6.98663665 12.9864368,6.89604989 12.9357096,6.80821837 C12.8444006,6.62859047 12.7323976,6.44929858 12.6178414,6.26644504 C12.4976414,6.08641394 12.3682366,5.90624843 12.228216,5.73051819 C12.0859782,5.55646796 11.9344012,5.38678579 11.7746272,5.22476452 C11.6127032,5.06482648 11.4433885,4.91288533 11.2694378,4.77041951 C11.0938746,4.63010412 10.913541,4.50080966 10.7336777,4.38031852 C10.5509925,4.26547225 10.3714651,4.15365002 10.1919378,4.06205525 C10.1041226,4.0113186 10.0134182,3.97422373 9.92835776,3.92839274 C9.84128162,3.88881144 9.75655707,3.84943173 9.67391536,3.81354648 C9.50843039,3.74244797 9.35228459,3.6821688 9.21105462,3.63042413 C9.14030526,3.60542541 9.07325125,3.58345073 9.011102,3.55986323 C8.94861681,3.53970297 8.89123793,3.52122274 8.8393685,3.50448972 C8.73522652,3.46786526 8.64653786,3.44710019 8.58929336,3.42720874 C8.53104103,3.40798929 8.5,3.39777476 8.5,3.39777476" id="Fill-3" fill="#E5E5E5" sketch:type="MSShapeGroup"></path>
            </g>
            <g id="bubble-sm" sketch:type="MSLayerGroup" transform="translate(40.000000, 10.000000)">
                <path d="M8.4375,4.5 C8.4375,6.67462886 6.67463528,8.4375 4.50001536,8.4375 C2.32538894,8.4375 0.5625,6.67462237 0.5625,4.5 C0.5625,2.32537763 2.32538894,0.5625 4.50001536,0.5625 C6.67463528,0.5625 8.4375,2.32537114 8.4375,4.5 L8.4375,4.5 Z M9,4.5 C9,2.01471143 6.98529591,0 4.50001536,0 C2.01472958,0 0,2.01471665 0,4.5 C0,6.98528335 2.01472958,9 4.50001536,9 C6.98529591,9 9,6.98528857 9,4.5 L9,4.5 Z" id="Shape" fill="#EDEDED" sketch:type="MSShapeGroup"></path>
                <path d="M4.5,1.79882193 C4.5,1.79882193 4.51668248,1.79423251 4.54798436,1.78565847 C4.5636353,1.78156712 4.58291441,1.77658635 4.60560828,1.77135654 C4.61695521,1.76868828 4.62915583,1.76584212 4.64213899,1.76281808 C4.65547786,1.76064789 4.66959928,1.75833539 4.68457438,1.75591616 C4.7146313,1.75082866 4.74824525,1.74623924 4.78520281,1.7413652 C4.82166239,1.73770077 4.86118101,1.73556616 4.9038654,1.73250654 C4.94658535,1.72926904 4.99154623,1.7316527 5.03981515,1.73111904 C5.08811965,1.73069212 5.13795366,1.73706039 5.19109572,1.74019116 C5.24391764,1.74478058 5.29812681,1.75452866 5.3551816,1.76253347 C5.38338886,1.76776328 5.41180954,1.77413155 5.44083492,1.78042866 C5.46993144,1.78658347 5.49945481,1.79309405 5.52887146,1.80152578 C5.55850154,1.80928155 5.5883806,1.81792674 5.61861538,1.82689213 C5.64867229,1.83628443 5.67858693,1.8472777 5.70921298,1.85766617 C5.77110533,1.87730463 5.83089904,1.90530367 5.89321823,1.93134598 C6.01515329,1.98848252 6.13758632,2.0568258 6.25468381,2.13769215 C6.37096318,2.21951908 6.48258284,2.3123037 6.58570119,2.4139114 C6.68732559,2.51701333 6.78030641,2.62844026 6.86222485,2.74474123 C6.94321847,2.86178931 7.01140677,2.98431624 7.06871055,3.10623837 C7.12331099,3.22961914 7.16802288,3.35182588 7.19864892,3.47065281 C7.20707909,3.50007493 7.21358846,3.52963936 7.21970655,3.55874128 C7.22589579,3.58784321 7.2324763,3.61619802 7.23766956,3.64441052 C7.24567288,3.70151148 7.2552413,3.7557663 7.25997215,3.80859803 C7.26310234,3.86178553 7.26929157,3.91166438 7.26897144,3.95994227 C7.26840232,4.00825574 7.27067882,4.05322497 7.26747749,4.09598843 C7.2643473,4.13868074 7.26224865,4.17820671 7.25851377,4.21467306 C7.25353392,4.25124614 7.24894535,4.28454614 7.24378766,4.31450191 C7.2413333,4.32940864 7.23902123,4.34353268 7.23685144,4.35680287 C7.2337924,4.37003749 7.23094677,4.38245384 7.22831457,4.39398076 C7.22305016,4.41696346 7.21803475,4.43642403 7.21394416,4.45211346 C7.205265,4.48335 7.20067643,4.5 7.20067643,4.5 C7.20067643,4.5 7.1951986,4.48349231 7.18498992,4.45261154 C7.17438997,4.42190865 7.16343431,4.37693941 7.14394177,4.3211548 C7.13433779,4.29326249 7.12512507,4.26252402 7.11448955,4.2294019 C7.10193323,4.19649325 7.0903373,4.16098748 7.07699843,4.12356055 C7.04957372,4.04881343 7.01763157,3.96613266 6.97992703,3.87854227 C6.96103919,3.83478265 6.94005271,3.78995572 6.91906622,3.7438836 C6.89498511,3.69880764 6.87517245,3.65084994 6.84831686,3.6043509 C6.79997679,3.50925378 6.74068107,3.41433454 6.68003368,3.31752973 C6.61639838,3.22221914 6.54788995,3.12683741 6.4737614,3.03380375 C6.39845904,2.94165951 6.3182124,2.85182777 6.23362618,2.7660518 C6.14790171,2.68137872 6.05826451,2.60093929 5.96617296,2.52551621 C5.87322772,2.45123159 5.77775698,2.38278159 5.68253524,2.31899216 C5.58581954,2.25819119 5.49077565,2.19899119 5.39573176,2.15049984 C5.34924135,2.12363926 5.30122142,2.1040008 5.2561894,2.07973734 C5.21009027,2.05878253 5.1652361,2.03793445 5.1214846,2.01893637 C5.03387491,1.98129598 4.95120949,1.94938348 4.87644068,1.92198925 C4.83898514,1.90875463 4.80348596,1.89712098 4.77058341,1.88463348 C4.73750302,1.8739604 4.70712596,1.86417674 4.67966568,1.85531809 C4.62453168,1.83592866 4.57757886,1.82493539 4.54727295,1.81440462 C4.51643349,1.80422962 4.5,1.79882193 4.5,1.79882193" id="Fill-3" fill="#E5E5E5" sketch:type="MSShapeGroup"></path>
            </g>
            <path d="M18.621,65.612 C19.5330046,66.5000044 19.989,67.6819926 19.989,69.158 C19.989,70.6340074 19.5360045,71.8339954 18.63,72.758 C17.7239955,73.6820046 16.668006,74.144 15.462,74.144 C14.255994,74.144 13.1730048,73.6160053 12.213,72.56 L12.213,77.492 L10.197,77.492 L10.197,64.424 L12.213,64.424 L12.213,66.098 C13.005004,64.8859939 14.0429936,64.28 15.327,64.28 C16.6110064,64.28 17.7089954,64.7239956 18.621,65.612 L18.621,65.612 Z M13.005,71.471 C13.5570028,72.0530029 14.228996,72.344 15.021,72.344 C15.813004,72.344 16.5029971,72.0560029 17.091,71.48 C17.6790029,70.9039971 17.973,70.1570046 17.973,69.239 C17.973,68.3209954 17.6850029,67.559003 17.109,66.953 C16.5329971,66.346997 15.843004,66.044 15.039,66.044 C14.234996,66.044 13.5570028,66.346997 13.005,66.953 C12.4529972,67.559003 12.177,68.3179954 12.177,69.23 C12.177,70.1420046 12.4529972,70.8889971 13.005,71.471 L13.005,71.471 Z M31.203,72.344 C32.0790044,72.344 32.8019972,72.0530029 33.372,71.471 C33.9420029,70.8889971 34.227,70.1360046 34.227,69.212 C34.227,68.2879954 33.9420029,67.5350029 33.372,66.953 C32.8019972,66.3709971 32.0790044,66.08 31.203,66.08 C30.3269956,66.08 29.6040029,66.3709971 29.034,66.953 C28.4639971,67.5350029 28.179,68.2879954 28.179,69.212 C28.179,70.1360046 28.4639971,70.8889971 29.034,71.471 C29.6040029,72.0530029 30.3269956,72.344 31.203,72.344 L31.203,72.344 Z M31.203,74.144 C29.7629928,74.144 28.5630048,73.6670048 27.603,72.713 C26.6429952,71.7589952 26.163,70.5920069 26.163,69.212 C26.163,67.8319931 26.6429952,66.6650048 27.603,65.711 C28.5630048,64.7569952 29.7629928,64.28 31.203,64.28 C32.6430072,64.28 33.8429952,64.7569952 34.803,65.711 C35.7630048,66.6650048 36.243,67.8319931 36.243,69.212 C36.243,70.5920069 35.7630048,71.7589952 34.803,72.713 C33.8429952,73.6670048 32.6430072,74.144 31.203,74.144 L31.203,74.144 Z M51.453,65.612 C52.3650046,66.5000044 52.821,67.6819926 52.821,69.158 C52.821,70.6340074 52.3680045,71.8339954 51.462,72.758 C50.5559955,73.6820046 49.500006,74.144 48.294,74.144 C47.087994,74.144 46.0050048,73.6160053 45.045,72.56 L45.045,77.492 L43.029,77.492 L43.029,64.424 L45.045,64.424 L45.045,66.098 C45.837004,64.8859939 46.8749936,64.28 48.159,64.28 C49.4430064,64.28 50.5409954,64.7239956 51.453,65.612 L51.453,65.612 Z M45.837,71.471 C46.3890028,72.0530029 47.060996,72.344 47.853,72.344 C48.645004,72.344 49.3349971,72.0560029 49.923,71.48 C50.5110029,70.9039971 50.805,70.1570046 50.805,69.239 C50.805,68.3209954 50.5170029,67.559003 49.941,66.953 C49.3649971,66.346997 48.675004,66.044 47.871,66.044 C47.066996,66.044 46.3890028,66.346997 45.837,66.953 C45.2849972,67.559003 45.009,68.3179954 45.009,69.23 C45.009,70.1420046 45.2849972,70.8889971 45.837,71.471 L45.837,71.471 Z M61.641,74 L59.625,74 L59.625,60.644 L61.641,60.644 L61.641,74 Z M76.815,74 L74.979,74 L74.979,72.722 C74.186996,73.6700047 73.1250067,74.144 71.793,74.144 C70.796995,74.144 69.9720033,73.8620028 69.318,73.298 C68.6639967,72.7339972 68.337,71.9810047 68.337,71.039 C68.337,70.0969953 68.6849965,69.3920023 69.381,68.924 C70.0770035,68.4559977 71.0189941,68.222 72.207,68.222 L74.817,68.222 L74.817,67.862 C74.817,66.5899936 74.1090071,65.954 72.693,65.954 C71.8049956,65.954 70.8810048,66.2779968 69.921,66.926 L69.021,65.666 C70.1850058,64.7419954 71.5049926,64.28 72.981,64.28 C74.1090056,64.28 75.0299964,64.5649971 75.744,65.135 C76.4580036,65.7050028 76.815,66.6019939 76.815,67.826 L76.815,74 Z M74.799,70.436 L74.799,69.626 L72.531,69.626 C71.0789927,69.626 70.353,70.0819954 70.353,70.994 C70.353,71.4620023 70.5329982,71.8189988 70.893,72.065 C71.2530018,72.3110012 71.7539968,72.434 72.396,72.434 C73.0380032,72.434 73.5989976,72.2540018 74.079,71.894 C74.5590024,71.5339982 74.799,71.0480031 74.799,70.436 L74.799,70.436 Z M92.547,65.612 C93.4590046,66.5000044 93.915,67.6819926 93.915,69.158 C93.915,70.6340074 93.4620045,71.8339954 92.556,72.758 C91.6499955,73.6820046 90.594006,74.144 89.388,74.144 C88.181994,74.144 87.0990048,73.6160053 86.139,72.56 L86.139,74 L84.123,74 L84.123,60.644 L86.139,60.644 L86.139,66.098 C86.931004,64.8859939 87.9689936,64.28 89.253,64.28 C90.5370064,64.28 91.6349954,64.7239956 92.547,65.612 L92.547,65.612 Z M86.931,71.471 C87.4830028,72.0530029 88.154996,72.344 88.947,72.344 C89.739004,72.344 90.4289971,72.0560029 91.017,71.48 C91.6050029,70.9039971 91.899,70.1570046 91.899,69.239 C91.899,68.3209954 91.6110029,67.559003 91.035,66.953 C90.4589971,66.346997 89.769004,66.044 88.965,66.044 C88.160996,66.044 87.4830028,66.346997 86.931,66.953 C86.3789972,67.559003 86.103,68.3179954 86.103,69.23 C86.103,70.1420046 86.3789972,70.8889971 86.931,71.471 L86.931,71.471 Z" id="poplab" fill="#ECECEC" sketch:type="MSShapeGroup"></path>
        </g>
    </g>
</svg>